# xmcd
#
# Track frame offsets: 
#        150
#        30083
#        61122
#        90248
#        115181
#        131215
#        155098
#        176808
#        185798
#        208604
#        230528
#        241335
#        261786
#        293568
#
# Disc length: 4280 seconds
#
# Revision: 0
# Processed by: cddbd v1.5.2PL0 Copyright (c) Steve Scherf et al.
# Submitted via: ExactAudioCopy v0.99pb5
#
DISCID=be10b60e
DTITLE=Various Artist - Bedrock Eleven [CD2)
DYEAR=2009
DGENRE=Progressive House, Techno, Tech House, Minimal
TTITLE0=Alan Fitzpatrick - Reflections
TTITLE1=Giorgos Gatzigristos - Pencils For The Weak
TTITLE2=James Zabiela - Tylium
TTITLE3=Rowdent - Found It
TTITLE4=Tone Depth - Rumblefish (Maher Daniel Remix)
TTITLE5=Erphun - The Little Rascall
TTITLE6=Alex Dolby and Santos - No Walls
TTITLE7=Guy Gerber - Stoppage Time (Reshuffle Remix)
TTITLE8=Marc Marzenit - Not Assigned
TTITLE9=John Digweed and Nick Muir - Tangent
TTITLE10=Marc Marzenit - Unexpiritualized
TTITLE11=Marc Marzenit - Expiritualized
TTITLE12=Bedrock - Emerald (Henry Saiz Remix)
TTITLE13=Suicide Sports Club - My Black Dog (Gutterstylz Alternative D
TTITLE13=ub)
EXTD=
EXTT0=
EXTT1=
EXTT2=
EXTT3=
EXTT4=
EXTT5=
EXTT6=
EXTT7=
EXTT8=
EXTT9=
EXTT10=
EXTT11=
EXTT12=
EXTT13=
PLAYORDER=
